<svg width="411" height="731" viewBox="0 0 411 731" fill="none" xmlns="http://www.w3.org/2000/svg">
<rect width="411" height="731" fill="url(#paint0_linear_3237_27667)"/>
<path d="M61.2862 375.007L84.6922 382.818L82.5207 389.325L73.125 386.19L70.477 394.125L79.8727 397.26L77.7011 403.767L54.295 395.956L56.4666 389.449L65.2646 392.385L67.9126 384.45L59.1146 381.514L61.2862 375.007Z" fill="#0E4158"/>
<path d="M91.4455 368.787C90.3274 370.808 88.83 372.407 86.9533 373.582C85.0563 374.745 82.9939 375.365 80.7662 375.439C78.5294 375.481 76.3493 374.915 74.2259 373.741C72.1024 372.566 70.4747 371.026 69.3425 369.12C68.2013 367.182 67.6298 365.106 67.628 362.891C67.6263 360.677 68.1845 358.559 69.3026 356.538C70.4321 354.496 71.9295 352.898 73.7948 351.743C75.6715 350.568 77.7282 349.959 79.965 349.917C82.1814 349.863 84.3513 350.423 86.4747 351.598C88.5981 352.773 90.2361 354.319 91.3887 356.236C92.5208 358.142 93.0979 360.208 93.1201 362.434C93.1219 364.648 92.5637 366.766 91.4455 368.787ZM85.8715 365.704C86.7186 364.172 86.8847 362.691 86.3699 361.26C85.8664 359.808 84.7776 358.619 83.1033 357.693C81.3882 356.744 79.7922 356.448 78.3152 356.804C76.8291 357.128 75.6625 358.056 74.8154 359.588C73.957 361.139 73.7852 362.631 74.3 364.062C74.7944 365.482 75.8991 366.667 77.6142 367.616C79.3089 368.553 80.8993 368.859 82.3854 368.535C83.8511 368.199 85.0131 367.255 85.8715 365.704Z" fill="#0E4158"/>
<path d="M112.95 338.39L108.599 343.694L92.1439 342.009L102.805 350.756L98.4539 356.06L79.3775 340.409L83.7287 335.105L100.319 336.901L89.5228 328.043L93.874 322.739L112.95 338.39Z" fill="#0E4158"/>
<path d="M110.445 315.063L112.966 318.201L119.106 313.27L122.371 317.336L116.231 322.267L119.014 325.733L125.973 320.144L129.414 324.428L117.107 334.313L101.656 315.074L113.963 305.19L117.404 309.474L110.445 315.063Z" fill="#0E4158"/>
<path d="M139.183 289.952L140.037 308.874L143.94 315.673L137.961 319.106L134.057 312.307L118.148 302.028L124.947 298.125L133.451 304.22L132.475 293.803L139.183 289.952Z" fill="#0E4158"/>
<path d="M180.072 288.401C179.546 287.846 178.904 287.472 178.146 287.278C177.41 287.08 176.587 287.079 175.674 287.277C173.987 287.643 172.772 288.48 172.029 289.787C171.308 291.089 171.148 292.664 171.549 294.511C171.999 296.586 172.856 298.06 174.119 298.932C175.401 299.776 177.033 299.983 179.017 299.553C181.366 299.043 182.812 297.619 183.355 295.281L176.617 296.742L175.571 291.92L188.09 289.204L189.499 295.703C189.252 297.094 188.736 298.459 187.953 299.799C187.192 301.134 186.115 302.335 184.722 303.401C183.325 304.444 181.635 305.181 179.651 305.611C177.234 306.135 174.979 306.087 172.886 305.466C170.812 304.818 169.061 303.682 167.634 302.057C166.226 300.405 165.261 298.382 164.742 295.987C164.228 293.616 164.272 291.398 164.875 289.333C165.495 287.241 166.618 285.481 168.242 284.054C169.862 282.605 171.88 281.618 174.297 281.094C177.33 280.436 179.997 280.621 182.297 281.651C184.598 282.68 186.262 284.408 187.29 286.835L180.072 288.401Z" fill="#0E4158"/>
<path d="M212.207 298.26L203.458 298.39L202.188 302.434L194.979 302.542L203.605 277.736L211.514 277.618L220.841 302.156L213.597 302.264L212.207 298.26ZM210.414 293.036L207.635 285.096L205.129 293.115L210.414 293.036Z" fill="#0E4158"/>
<path d="M236.329 279.481L232.009 303.775L225.255 302.574L229.575 278.28L236.329 279.481Z" fill="#0E4158"/>
<path d="M258.785 312.977L252.353 310.593L248.58 294.487L243.788 307.418L237.355 305.033L245.931 281.897L252.364 284.281L256.075 300.55L260.929 287.456L267.361 289.84L258.785 312.977Z" fill="#0E4158"/>
<path d="M280.375 307.064C281.806 305.103 283.483 303.655 285.407 302.72C287.364 301.779 289.406 301.435 291.533 301.686C293.674 301.919 295.724 302.751 297.685 304.181C300.173 305.996 301.777 308.192 302.497 310.768C303.231 313.325 303.011 315.923 301.837 318.562L295.871 314.209C296.063 313.194 295.983 312.254 295.631 311.391C295.298 310.541 294.716 309.814 293.887 309.209C292.605 308.274 291.241 307.986 289.794 308.346C288.38 308.701 287.116 309.642 286.002 311.168C284.874 312.714 284.351 314.224 284.431 315.698C284.544 317.166 285.241 318.368 286.523 319.303C287.352 319.908 288.222 320.24 289.133 320.298C290.063 320.37 290.982 320.159 291.89 319.666L297.856 324.019C295.702 325.942 293.289 326.954 290.616 327.055C287.957 327.137 285.383 326.27 282.895 324.455C280.934 323.025 279.509 321.335 278.62 319.387C277.745 317.42 277.449 315.37 277.734 313.238C278.051 311.101 278.931 309.043 280.375 307.064Z" fill="#0E4158"/>
<path d="M306.595 344.443L301.321 337.462L297.307 338.827L292.961 333.074L318.071 325.376L322.839 331.687L308.553 353.711L304.186 347.931L306.595 344.443ZM309.75 339.91L314.514 332.977L306.564 335.693L309.75 339.91Z" fill="#0E4158"/>
<path d="M314.1 366.004C312.906 363.394 312.541 360.97 313.005 358.731C313.49 356.482 314.86 354.765 317.115 353.579L320.157 360.231C319.401 360.654 318.935 361.15 318.759 361.718C318.582 362.286 318.64 362.888 318.931 363.525C319.193 364.098 319.545 364.502 319.985 364.736C320.457 364.982 320.948 364.989 321.457 364.756C322.115 364.455 322.483 363.914 322.563 363.134C322.642 362.354 322.589 361.172 322.404 359.589C322.222 357.902 322.145 356.5 322.173 355.384C322.233 354.279 322.542 353.188 323.101 352.111C323.692 351.046 324.698 350.188 326.119 349.538C327.562 348.878 328.958 348.675 330.306 348.931C331.676 349.177 332.917 349.815 334.03 350.845C335.143 351.876 336.068 353.198 336.806 354.81C338 357.42 338.335 359.781 337.813 361.893C337.322 364.016 335.997 365.636 333.839 366.751L330.738 359.972C331.407 359.64 331.82 359.195 331.975 358.636C332.139 358.099 332.081 357.523 331.8 356.908C331.586 356.441 331.273 356.122 330.862 355.951C330.45 355.78 329.99 355.811 329.48 356.044C329.056 356.238 328.757 356.567 328.585 357.031C328.443 357.506 328.367 358.042 328.357 358.636C328.368 359.221 328.422 360.069 328.519 361.179C328.681 362.824 328.727 364.214 328.656 365.35C328.617 366.497 328.312 367.599 327.743 368.654C327.205 369.722 326.278 370.556 324.963 371.158C323.626 371.769 322.272 371.978 320.9 371.784C319.538 371.612 318.258 371.03 317.061 370.038C315.873 369.068 314.886 367.723 314.1 366.004Z" fill="#0E4158"/>
<path d="M350.773 394.89L326.822 400.826L325.172 394.168L334.786 391.785L332.774 383.666L323.16 386.048L321.509 379.39L345.46 373.454L347.11 380.112L338.107 382.344L340.12 390.463L349.122 388.232L350.773 394.89Z" fill="#0E4158"/>
<path d="M237.296 392.492C233.455 392.492 229.314 392.856 225.346 393.377L225.335 393.358C233.547 391.46 245.564 387.69 250.363 381.19C257.971 370.892 260.737 358.901 254.773 352.505C252.684 350.267 249.981 349.201 247.022 349.201C241.526 349.201 235.146 352.883 230.201 359.583C230.012 359.841 229.824 360.123 229.639 360.399C228.297 356.715 226.148 353.377 223.351 350.629C220.553 347.881 217.177 345.793 213.47 344.518C214.07 342.887 215.1 341.449 216.452 340.357C216.593 340.535 216.747 340.708 216.925 340.864C217.307 341.199 217.752 341.456 218.234 341.617C218.716 341.779 219.225 341.843 219.732 341.806C220.24 341.769 220.734 341.631 221.187 341.401C221.641 341.171 222.043 340.852 222.372 340.465C223.042 339.678 223.376 338.659 223.302 337.628C223.228 336.598 222.752 335.637 221.976 334.954C220.365 333.541 217.932 333.717 216.531 335.353C216.115 335.839 215.824 336.418 215.683 337.042C215.543 337.666 215.557 338.314 215.724 338.931C213.985 340.253 212.639 342.065 211.948 344.051C209.687 343.421 207.351 343.098 205.003 343.09C202.597 343.09 200.274 343.443 198.058 344.053C197.369 342.067 196.023 340.254 194.284 338.933C194.451 338.316 194.465 337.667 194.324 337.043C194.183 336.42 193.892 335.84 193.475 335.355C193.147 334.967 192.744 334.649 192.291 334.418C191.838 334.188 191.343 334.05 190.836 334.013C190.329 333.976 189.82 334.04 189.338 334.202C188.856 334.364 188.412 334.62 188.03 334.956C187.255 335.639 186.778 336.599 186.704 337.63C186.63 338.661 186.964 339.679 187.634 340.466C187.963 340.854 188.366 341.172 188.819 341.402C189.273 341.632 189.767 341.77 190.274 341.807C190.781 341.844 191.29 341.78 191.772 341.619C192.254 341.457 192.699 341.201 193.081 340.866C193.26 340.71 193.413 340.535 193.555 340.359C194.907 341.45 195.937 342.888 196.537 344.519C192.829 345.795 189.452 347.883 186.655 350.631C183.857 353.379 181.709 356.718 180.368 360.402C180.18 360.127 179.993 359.842 179.804 359.584C174.859 352.885 168.481 349.203 162.983 349.203C160.023 349.203 157.32 350.27 155.232 352.507C149.267 358.902 152.034 370.893 159.642 381.192C164.44 387.692 176.458 391.462 184.67 393.36C184.641 393.409 184.62 393.464 184.594 393.513C180.336 392.923 175.829 392.497 171.673 392.497C162.439 392.497 154.944 394.596 155.79 401.639C157.278 414.008 162.348 418.273 168.645 418.273C173.882 418.273 179.961 415.319 185.53 411.617C188.786 424.244 196.194 430.864 203.812 431.488C204.786 435.414 203.463 440.005 203.463 440.005C203.463 440.005 209.162 435.914 208.955 431.025C215.436 429.225 221.388 422.93 224.309 412.184C229.632 415.615 235.353 418.274 240.319 418.274C246.614 418.274 251.692 414.006 253.181 401.637C254.024 394.594 246.531 392.492 237.296 392.492ZM205.003 346.624C217.519 346.624 227.703 356.805 227.703 369.321C227.703 381.837 217.519 392.017 205.003 392.017C192.488 392.017 182.306 381.835 182.306 369.319C182.306 356.804 192.488 346.624 205.003 346.624ZM168.647 414.737C166.737 414.737 160.926 414.737 159.299 401.216C159.129 399.799 159.532 399.139 159.901 398.723C160.619 397.914 163.207 396.031 171.675 396.031C175.55 396.031 179.776 396.428 183.807 396.98C183.82 400.96 184.145 404.591 184.728 407.882C179.21 411.704 173.327 414.737 168.647 414.737ZM162.484 379.091C155.403 369.503 153.483 359.561 157.817 354.915C159.166 353.468 160.903 352.735 162.983 352.735C167.53 352.735 172.885 356.162 176.959 361.682C177.705 362.69 178.429 363.878 179.133 365.169C178.902 366.541 178.782 367.929 178.772 369.319C178.772 377.233 182.311 384.323 187.869 389.137C187.924 389.345 187.988 389.572 188.042 389.773C187.783 389.952 187.529 390.139 187.281 390.333C178.873 388.54 166.742 384.858 162.484 379.091ZM215.567 422.502C208.558 421.527 201.447 421.527 194.438 422.502C192.532 420.34 190.876 417.531 189.652 414.031C199.874 413.334 210.131 413.334 220.353 414.031C219.128 417.529 217.475 420.34 215.567 422.502ZM222.363 404.545C211.242 405.446 198.765 405.446 187.643 404.545C187.441 402.617 187.338 400.681 187.336 398.743C187.336 397.395 187.776 396.202 188.525 395.147C199.118 397.566 210.888 397.566 221.482 395.147C222.231 396.2 222.671 397.395 222.671 398.743C222.669 400.681 222.566 402.617 222.363 404.545ZM222.72 390.333C222.474 390.138 222.221 389.951 221.961 389.775L222.132 389.142C227.694 384.328 231.234 377.238 231.234 369.321C231.234 367.904 231.089 366.524 230.872 365.167C231.575 363.879 232.301 362.692 233.045 361.682C237.119 356.164 242.474 352.736 247.022 352.736C249.101 352.736 250.838 353.47 252.188 354.917C256.522 359.563 254.601 369.505 247.52 379.093C243.273 384.846 231.134 388.533 222.72 390.333ZM249.674 401.215C248.041 414.741 242.229 414.741 240.319 414.741C235.895 414.741 230.399 412.029 225.151 408.504C225.814 405.008 226.199 401.135 226.203 396.84C229.918 396.361 233.748 396.026 237.296 396.026C245.764 396.026 248.351 397.909 249.07 398.718C249.439 399.137 249.844 399.798 249.674 401.215Z" fill="#0E4158"/>
<path d="M217.846 376.586C220.775 376.586 223.148 373.82 223.148 370.401C223.148 366.982 220.775 364.219 217.846 364.219C214.925 364.219 212.547 366.982 212.547 370.401C212.547 373.82 214.923 376.586 217.846 376.586Z" fill="#0E4158"/>
<path d="M197.46 370.401C197.46 366.982 195.087 364.219 192.158 364.219C189.237 364.219 186.859 366.982 186.859 370.401C186.859 373.82 189.237 376.586 192.158 376.586C195.089 376.586 197.46 373.818 197.46 370.401Z" fill="#0E4158"/>
<path d="M197.071 384.132C197.071 385.784 200.855 387.284 205.007 387.284C209.155 387.284 212.935 385.782 212.935 384.132C212.935 383.662 212.534 383.414 212.141 383.414C211.852 383.414 211.564 383.534 211.095 383.732C210.062 384.169 208.134 384.981 205.007 384.981C201.873 384.981 199.945 384.169 198.91 383.732C198.442 383.536 198.159 383.414 197.867 383.414C197.752 383.411 197.637 383.432 197.529 383.476C197.422 383.519 197.325 383.584 197.244 383.667C197.128 383.794 197.066 383.96 197.071 384.132Z" fill="#0E4158"/>
<defs>
<linearGradient id="paint0_linear_3237_27667" x1="0" y1="0" x2="206" y2="731" gradientUnits="userSpaceOnUse">
<stop stop-color="#87D2FC"/>
<stop offset="1" stop-color="white"/>
</linearGradient>
</defs>
</svg>
